<mxfile host="app.diagrams.net" modified="2021-12-21T02:36:53.014Z" agent="5.0 (Macintosh; Intel Mac OS X 10_15_7) AppleWebKit/537.36 (KHTML, like Gecko) Chrome/96.0.4664.110 Safari/537.36" etag="qB8rWoXL2cdt5nOn7k-m" version="16.0.0" type="github">
  <diagram id="MXw0cYcsGM257r_ZbbDP" name="Page-1">
    <mxGraphModel dx="1328" dy="864" grid="0" gridSize="10" guides="1" tooltips="1" connect="1" arrows="1" fold="1" page="1" pageScale="1" pageWidth="827" pageHeight="1169" background="none" math="0" shadow="0">
      <root>
        <mxCell id="0" />
        <mxCell id="1" parent="0" />
        <mxCell id="oo8Prl5hbCjf0k8FOTMF-8" value="布兰洛大酒店" style="text;html=1;align=center;verticalAlign=middle;whiteSpace=wrap;rounded=0;sketch=0;fontFamily=Comic Sans MS;fontColor=#FF66B3;" vertex="1" parent="1">
          <mxGeometry x="433.5" y="109" width="93.5" height="30" as="geometry" />
        </mxCell>
        <mxCell id="uacHUbi1trWL338XFEOj-30" value="" style="rounded=1;whiteSpace=wrap;html=1;shadow=0;glass=0;sketch=1;fontFamily=Garamond;fontSize=12;strokeColor=#FF66FF;fillColor=none;dashed=1;strokeWidth=1;dashPattern=1 4;" parent="1" vertex="1">
          <mxGeometry x="387.5" y="125" width="198" height="668" as="geometry" />
        </mxCell>
        <mxCell id="oo8Prl5hbCjf0k8FOTMF-12" style="edgeStyle=none;rounded=0;orthogonalLoop=1;jettySize=auto;html=1;entryX=0.5;entryY=0;entryDx=0;entryDy=0;fontFamily=Comic Sans MS;fontColor=#FF66B3;" edge="1" parent="1" source="uacHUbi1trWL338XFEOj-3" target="oo8Prl5hbCjf0k8FOTMF-10">
          <mxGeometry relative="1" as="geometry" />
        </mxCell>
        <mxCell id="oo8Prl5hbCjf0k8FOTMF-15" value="&lt;font color=&quot;#303030&quot;&gt;妹妹&lt;/font&gt;" style="edgeLabel;html=1;align=center;verticalAlign=middle;resizable=0;points=[];fontFamily=Comic Sans MS;fontColor=#FF66B3;" vertex="1" connectable="0" parent="oo8Prl5hbCjf0k8FOTMF-12">
          <mxGeometry x="-0.1698" y="-2" relative="1" as="geometry">
            <mxPoint as="offset" />
          </mxGeometry>
        </mxCell>
        <mxCell id="oo8Prl5hbCjf0k8FOTMF-14" style="edgeStyle=none;rounded=0;orthogonalLoop=1;jettySize=auto;html=1;entryX=1;entryY=0.5;entryDx=0;entryDy=0;fontFamily=Comic Sans MS;fontColor=#FF66B3;" edge="1" parent="1" source="uacHUbi1trWL338XFEOj-3" target="uacHUbi1trWL338XFEOj-4">
          <mxGeometry relative="1" as="geometry" />
        </mxCell>
        <mxCell id="oo8Prl5hbCjf0k8FOTMF-17" value="男友" style="edgeLabel;html=1;align=center;verticalAlign=middle;resizable=0;points=[];fontFamily=Comic Sans MS;fontColor=#303030;" vertex="1" connectable="0" parent="oo8Prl5hbCjf0k8FOTMF-14">
          <mxGeometry x="-0.3709" y="1" relative="1" as="geometry">
            <mxPoint x="-5" as="offset" />
          </mxGeometry>
        </mxCell>
        <mxCell id="uacHUbi1trWL338XFEOj-3" value="&lt;span&gt;苏珊·赖尔&lt;/span&gt;" style="shape=hexagon;perimeter=hexagonPerimeter2;whiteSpace=wrap;html=1;fixedSize=1;rounded=1;shadow=0;glass=0;sketch=1;fontFamily=Garamond;fontSize=12;strokeColor=#6c8ebf;fillColor=#dae8fc;" parent="1" vertex="1">
          <mxGeometry x="188.88" y="445" width="78" height="35" as="geometry" />
        </mxCell>
        <mxCell id="uacHUbi1trWL338XFEOj-4" value="安德鲁" style="shape=hexagon;perimeter=hexagonPerimeter2;whiteSpace=wrap;html=1;fixedSize=1;rounded=1;shadow=0;glass=0;sketch=1;fontFamily=Garamond;fontSize=12;fontColor=default;strokeColor=#6c8ebf;fillColor=#dae8fc;" parent="1" vertex="1">
          <mxGeometry x="75.25" y="445" width="65.75" height="36" as="geometry" />
        </mxCell>
        <mxCell id="uacHUbi1trWL338XFEOj-9" style="edgeStyle=none;rounded=1;orthogonalLoop=1;jettySize=auto;html=1;fontFamily=Comic Sans MS;fontSize=12;fontColor=default;endArrow=none;endFill=0;" parent="1" source="uacHUbi1trWL338XFEOj-7" target="uacHUbi1trWL338XFEOj-8" edge="1">
          <mxGeometry relative="1" as="geometry" />
        </mxCell>
        <mxCell id="uacHUbi1trWL338XFEOj-10" value="夫妻" style="edgeLabel;html=1;align=center;verticalAlign=middle;resizable=0;points=[];fontSize=12;fontFamily=Comic Sans MS;fontColor=default;" parent="uacHUbi1trWL338XFEOj-9" vertex="1" connectable="0">
          <mxGeometry x="-0.314" y="1" relative="1" as="geometry">
            <mxPoint y="5" as="offset" />
          </mxGeometry>
        </mxCell>
        <mxCell id="uacHUbi1trWL338XFEOj-7" value="劳伦斯·特里赫恩" style="shape=hexagon;perimeter=hexagonPerimeter2;whiteSpace=wrap;html=1;fixedSize=1;rounded=1;shadow=0;glass=0;sketch=1;fontFamily=Comic Sans MS;fontSize=12;fillColor=#dae8fc;strokeColor=#6c8ebf;" parent="1" vertex="1">
          <mxGeometry x="233" y="240" width="100" height="43" as="geometry" />
        </mxCell>
        <mxCell id="uacHUbi1trWL338XFEOj-8" value="波琳·特里赫恩" style="shape=hexagon;perimeter=hexagonPerimeter2;whiteSpace=wrap;html=1;fixedSize=1;rounded=1;shadow=0;glass=0;sketch=1;fontFamily=Comic Sans MS;fontSize=12;fillColor=#dae8fc;strokeColor=#6c8ebf;" parent="1" vertex="1">
          <mxGeometry x="233" y="318" width="101" height="42.5" as="geometry" />
        </mxCell>
        <mxCell id="uacHUbi1trWL338XFEOj-19" style="edgeStyle=none;rounded=1;orthogonalLoop=1;jettySize=auto;html=1;entryX=0.5;entryY=1;entryDx=0;entryDy=0;fontFamily=Comic Sans MS;fontSize=12;fontColor=default;endArrow=none;endFill=0;startArrow=none;exitX=0.5;exitY=0;exitDx=0;exitDy=0;" parent="1" source="uacHUbi1trWL338XFEOj-11" target="uacHUbi1trWL338XFEOj-18" edge="1">
          <mxGeometry relative="1" as="geometry" />
        </mxCell>
        <mxCell id="uacHUbi1trWL338XFEOj-20" value="夫妻" style="edgeLabel;html=1;align=center;verticalAlign=middle;resizable=0;points=[];fontSize=12;fontFamily=Comic Sans MS;fontColor=default;" parent="uacHUbi1trWL338XFEOj-19" vertex="1" connectable="0">
          <mxGeometry x="0.1038" y="2" relative="1" as="geometry">
            <mxPoint x="2" y="5" as="offset" />
          </mxGeometry>
        </mxCell>
        <mxCell id="uacHUbi1trWL338XFEOj-11" value="塞西莉·特里赫恩&lt;br&gt;（失踪）" style="shape=hexagon;perimeter=hexagonPerimeter2;whiteSpace=wrap;html=1;fixedSize=1;rounded=1;shadow=0;glass=0;sketch=0;fontFamily=Comic Sans MS;fontSize=12;strokeColor=#d6b656;fillColor=#fff2cc;" parent="1" vertex="1">
          <mxGeometry x="425" y="231" width="100" height="43" as="geometry" />
        </mxCell>
        <mxCell id="uacHUbi1trWL338XFEOj-13" value="丽莎·特里赫恩" style="shape=hexagon;perimeter=hexagonPerimeter2;whiteSpace=wrap;html=1;fixedSize=1;rounded=1;shadow=0;glass=0;sketch=1;fontFamily=Comic Sans MS;fontSize=12;fontColor=default;strokeColor=#6c8ebf;fillColor=#dae8fc;" parent="1" vertex="1">
          <mxGeometry x="427" y="331" width="100" height="43" as="geometry" />
        </mxCell>
        <mxCell id="uacHUbi1trWL338XFEOj-14" value="" style="shape=curlyBracket;whiteSpace=wrap;html=1;rounded=1;flipH=1;shadow=0;glass=0;sketch=1;fontFamily=Comic Sans MS;fontSize=12;fontColor=default;strokeColor=#6c8ebf;fillColor=#dae8fc;" parent="1" vertex="1">
          <mxGeometry x="337" y="247" width="64" height="104" as="geometry" />
        </mxCell>
        <mxCell id="uacHUbi1trWL338XFEOj-15" value="" style="shape=curlyBracket;whiteSpace=wrap;html=1;rounded=1;shadow=0;glass=0;sketch=1;fontFamily=Comic Sans MS;fontSize=12;fontColor=default;strokeColor=#6c8ebf;fillColor=#dae8fc;" parent="1" vertex="1">
          <mxGeometry x="393" y="243" width="20" height="112" as="geometry" />
        </mxCell>
        <mxCell id="uacHUbi1trWL338XFEOj-16" value="女儿" style="text;html=1;align=center;verticalAlign=middle;whiteSpace=wrap;rounded=0;shadow=0;glass=0;sketch=0;fontFamily=Comic Sans MS;fontSize=12;fillColor=default;" parent="1" vertex="1">
          <mxGeometry x="387.5" y="291" width="31" height="16" as="geometry" />
        </mxCell>
        <mxCell id="uacHUbi1trWL338XFEOj-18" value="艾登·麦克尼尔" style="shape=hexagon;perimeter=hexagonPerimeter2;whiteSpace=wrap;html=1;fixedSize=1;rounded=1;shadow=0;glass=0;sketch=1;fontFamily=Comic Sans MS;fontSize=12;fontColor=default;strokeColor=#6c8ebf;fillColor=#dae8fc;" parent="1" vertex="1">
          <mxGeometry x="427.5" y="142" width="95" height="38" as="geometry" />
        </mxCell>
        <mxCell id="uacHUbi1trWL338XFEOj-21" value="罗克珊娜" style="shape=hexagon;perimeter=hexagonPerimeter2;whiteSpace=wrap;html=1;fixedSize=1;rounded=1;shadow=0;glass=0;sketch=1;fontFamily=Comic Sans MS;fontSize=12;fontColor=default;strokeColor=#6c8ebf;fillColor=#dae8fc;" parent="1" vertex="1">
          <mxGeometry x="592.5" y="187" width="95" height="38" as="geometry" />
        </mxCell>
        <mxCell id="uacHUbi1trWL338XFEOj-23" value="" style="shape=curlyBracket;whiteSpace=wrap;html=1;rounded=1;flipH=1;shadow=0;glass=0;sketch=1;fontFamily=Comic Sans MS;fontSize=12;fontColor=default;strokeColor=#6c8ebf;fillColor=#dae8fc;size=0.5;gradientColor=none;" parent="1" vertex="1">
          <mxGeometry x="525" y="158" width="56" height="96" as="geometry" />
        </mxCell>
        <mxCell id="uacHUbi1trWL338XFEOj-24" value="女儿" style="text;html=1;strokeColor=none;fillColor=default;align=center;verticalAlign=middle;whiteSpace=wrap;rounded=0;shadow=0;glass=0;sketch=0;fontFamily=Comic Sans MS;fontSize=12;fontColor=default;" parent="1" vertex="1">
          <mxGeometry x="569" y="197.5" width="27" height="17" as="geometry" />
        </mxCell>
        <mxCell id="uacHUbi1trWL338XFEOj-28" value="" style="edgeStyle=none;rounded=1;orthogonalLoop=1;jettySize=auto;html=1;fontFamily=Comic Sans MS;fontSize=12;fontColor=default;endArrow=none;endFill=0;startArrow=classic;startFill=1;" parent="1" source="uacHUbi1trWL338XFEOj-25" target="uacHUbi1trWL338XFEOj-21" edge="1">
          <mxGeometry relative="1" as="geometry">
            <mxPoint x="626" y="190" as="targetPoint" />
          </mxGeometry>
        </mxCell>
        <mxCell id="uacHUbi1trWL338XFEOj-29" value="保姆" style="edgeLabel;html=1;align=center;verticalAlign=middle;resizable=0;points=[];fontSize=12;fontFamily=Comic Sans MS;fontColor=default;" parent="uacHUbi1trWL338XFEOj-28" vertex="1" connectable="0">
          <mxGeometry x="-0.2885" y="1" relative="1" as="geometry">
            <mxPoint y="11" as="offset" />
          </mxGeometry>
        </mxCell>
        <mxCell id="uacHUbi1trWL338XFEOj-25" value="埃洛伊丝·拉德玛尼" style="shape=hexagon;perimeter=hexagonPerimeter2;whiteSpace=wrap;html=1;fixedSize=1;rounded=1;shadow=0;glass=0;sketch=1;fontFamily=Garamond;fontSize=12;fontColor=default;strokeColor=#6c8ebf;fillColor=#dae8fc;" parent="1" vertex="1">
          <mxGeometry x="585.5" y="109" width="114" height="35" as="geometry" />
        </mxCell>
        <mxCell id="uacHUbi1trWL338XFEOj-33" value="斯蒂芬·科德莱斯库&lt;br&gt;（嫌疑人）" style="shape=hexagon;perimeter=hexagonPerimeter2;whiteSpace=wrap;html=1;fixedSize=1;rounded=1;shadow=0;glass=0;sketch=0;fontFamily=Comic Sans MS;fontSize=12;strokeColor=#d79b00;fillColor=#ffe6cc;" parent="1" vertex="1">
          <mxGeometry x="421" y="412" width="115" height="43" as="geometry" />
        </mxCell>
        <mxCell id="oo8Prl5hbCjf0k8FOTMF-3" value="兄妹" style="edgeStyle=orthogonalEdgeStyle;rounded=0;orthogonalLoop=1;jettySize=auto;html=1;fontFamily=Comic Sans MS;" edge="1" parent="1" source="oo8Prl5hbCjf0k8FOTMF-1" target="oo8Prl5hbCjf0k8FOTMF-2">
          <mxGeometry relative="1" as="geometry" />
        </mxCell>
        <mxCell id="oo8Prl5hbCjf0k8FOTMF-1" value="弗兰克·帕里斯&lt;br&gt;客人（受害者）" style="shape=hexagon;perimeter=hexagonPerimeter2;whiteSpace=wrap;html=1;fixedSize=1;rounded=1;shadow=0;glass=0;sketch=0;fontFamily=Comic Sans MS;fontSize=12;strokeColor=#b85450;fillColor=#f8cecc;" vertex="1" parent="1">
          <mxGeometry x="425" y="475" width="100" height="43" as="geometry" />
        </mxCell>
        <mxCell id="oo8Prl5hbCjf0k8FOTMF-5" style="rounded=0;orthogonalLoop=1;jettySize=auto;html=1;entryX=0.5;entryY=0;entryDx=0;entryDy=0;fontFamily=Comic Sans MS;" edge="1" parent="1" source="oo8Prl5hbCjf0k8FOTMF-2" target="oo8Prl5hbCjf0k8FOTMF-4">
          <mxGeometry relative="1" as="geometry" />
        </mxCell>
        <mxCell id="oo8Prl5hbCjf0k8FOTMF-18" value="丈夫" style="edgeLabel;html=1;align=center;verticalAlign=middle;resizable=0;points=[];fontFamily=Comic Sans MS;fontColor=#303030;" vertex="1" connectable="0" parent="oo8Prl5hbCjf0k8FOTMF-5">
          <mxGeometry x="-0.1176" relative="1" as="geometry">
            <mxPoint as="offset" />
          </mxGeometry>
        </mxCell>
        <mxCell id="oo8Prl5hbCjf0k8FOTMF-2" value="乔安娜·威廉姆斯" style="shape=hexagon;perimeter=hexagonPerimeter2;whiteSpace=wrap;html=1;fixedSize=1;rounded=1;shadow=0;glass=0;sketch=1;fontFamily=Garamond;fontSize=12;strokeColor=#6c8ebf;fillColor=#dae8fc;" vertex="1" parent="1">
          <mxGeometry x="605" y="475" width="104" height="43" as="geometry" />
        </mxCell>
        <mxCell id="oo8Prl5hbCjf0k8FOTMF-4" value="马丁·威廉姆斯" style="shape=hexagon;perimeter=hexagonPerimeter2;whiteSpace=wrap;html=1;fixedSize=1;rounded=1;shadow=0;glass=0;sketch=1;fontFamily=Garamond;fontSize=12;strokeColor=#6c8ebf;fillColor=#dae8fc;" vertex="1" parent="1">
          <mxGeometry x="605" y="562" width="104" height="43" as="geometry" />
        </mxCell>
        <mxCell id="oo8Prl5hbCjf0k8FOTMF-6" value="德里克·恩迪克特&lt;br&gt;夜班经理" style="shape=hexagon;perimeter=hexagonPerimeter2;whiteSpace=wrap;html=1;fixedSize=1;rounded=1;shadow=0;glass=0;sketch=1;fontFamily=Garamond;fontSize=12;fontColor=default;strokeColor=#6c8ebf;fillColor=#dae8fc;" vertex="1" parent="1">
          <mxGeometry x="430.25" y="566" width="100" height="43" as="geometry" />
        </mxCell>
        <mxCell id="oo8Prl5hbCjf0k8FOTMF-7" value="莱昂内尔·科比&lt;br&gt;水疗馆经理" style="shape=hexagon;perimeter=hexagonPerimeter2;whiteSpace=wrap;html=1;fixedSize=1;rounded=1;shadow=0;glass=0;sketch=1;fontFamily=Garamond;fontSize=12;fontColor=default;strokeColor=#6c8ebf;fillColor=#dae8fc;" vertex="1" parent="1">
          <mxGeometry x="430.25" y="649" width="100" height="43" as="geometry" />
        </mxCell>
        <mxCell id="oo8Prl5hbCjf0k8FOTMF-9" value="娜塔莎·马尔克&lt;br&gt;女佣" style="shape=hexagon;perimeter=hexagonPerimeter2;whiteSpace=wrap;html=1;fixedSize=1;rounded=1;shadow=0;glass=0;sketch=1;fontFamily=Garamond;fontSize=12;fontColor=default;strokeColor=#6c8ebf;fillColor=#dae8fc;" vertex="1" parent="1">
          <mxGeometry x="430.25" y="719" width="100" height="43" as="geometry" />
        </mxCell>
        <mxCell id="oo8Prl5hbCjf0k8FOTMF-13" style="edgeStyle=none;rounded=0;orthogonalLoop=1;jettySize=auto;html=1;fontFamily=Comic Sans MS;fontColor=#FF66B3;" edge="1" parent="1" source="oo8Prl5hbCjf0k8FOTMF-10" target="oo8Prl5hbCjf0k8FOTMF-11">
          <mxGeometry relative="1" as="geometry" />
        </mxCell>
        <mxCell id="oo8Prl5hbCjf0k8FOTMF-16" value="丈夫" style="edgeLabel;html=1;align=center;verticalAlign=middle;resizable=0;points=[];fontFamily=Comic Sans MS;fontColor=#303030;" vertex="1" connectable="0" parent="oo8Prl5hbCjf0k8FOTMF-13">
          <mxGeometry x="-0.04" y="-1" relative="1" as="geometry">
            <mxPoint x="3" as="offset" />
          </mxGeometry>
        </mxCell>
        <mxCell id="oo8Prl5hbCjf0k8FOTMF-10" value="&lt;span&gt;凯特·利思&lt;/span&gt;" style="shape=hexagon;perimeter=hexagonPerimeter2;whiteSpace=wrap;html=1;fixedSize=1;rounded=1;shadow=0;glass=0;sketch=1;fontFamily=Garamond;fontSize=12;strokeColor=#6c8ebf;fillColor=#dae8fc;" vertex="1" parent="1">
          <mxGeometry x="188.88" y="533" width="78" height="35" as="geometry" />
        </mxCell>
        <mxCell id="oo8Prl5hbCjf0k8FOTMF-11" value="&lt;span&gt;戈登·利思&lt;/span&gt;" style="shape=hexagon;perimeter=hexagonPerimeter2;whiteSpace=wrap;html=1;fixedSize=1;rounded=1;shadow=0;glass=0;sketch=1;fontFamily=Garamond;fontSize=12;strokeColor=#6c8ebf;fillColor=#dae8fc;" vertex="1" parent="1">
          <mxGeometry x="63" y="533" width="78" height="35" as="geometry" />
        </mxCell>
        <mxCell id="oo8Prl5hbCjf0k8FOTMF-22" style="edgeStyle=orthogonalEdgeStyle;rounded=0;orthogonalLoop=1;jettySize=auto;html=1;fontFamily=Comic Sans MS;fontColor=#303030;exitX=0.1;exitY=0.5;exitDx=0;exitDy=0;exitPerimeter=0;curved=1;fillColor=#dae8fc;strokeColor=#6c8ebf;sketch=1;" edge="1" parent="1" source="oo8Prl5hbCjf0k8FOTMF-21">
          <mxGeometry relative="1" as="geometry">
            <mxPoint x="228" y="445" as="targetPoint" />
            <Array as="points">
              <mxPoint x="174" y="303" />
              <mxPoint x="174" y="399" />
              <mxPoint x="228" y="399" />
            </Array>
          </mxGeometry>
        </mxCell>
        <mxCell id="oo8Prl5hbCjf0k8FOTMF-23" value="雇佣调查" style="edgeLabel;html=1;align=center;verticalAlign=middle;resizable=0;points=[];fontFamily=Comic Sans MS;fontColor=#303030;" vertex="1" connectable="0" parent="oo8Prl5hbCjf0k8FOTMF-22">
          <mxGeometry x="0.2991" y="5" relative="1" as="geometry">
            <mxPoint as="offset" />
          </mxGeometry>
        </mxCell>
        <mxCell id="oo8Prl5hbCjf0k8FOTMF-21" value="" style="shape=curlyBracket;whiteSpace=wrap;html=1;rounded=1;shadow=0;glass=0;sketch=1;fontFamily=Comic Sans MS;fontSize=12;fontColor=default;strokeColor=#6c8ebf;fillColor=#dae8fc;" vertex="1" parent="1">
          <mxGeometry x="210" y="254" width="20" height="98.5" as="geometry" />
        </mxCell>
        <mxCell id="oo8Prl5hbCjf0k8FOTMF-24" value="调查" style="html=1;shadow=0;dashed=0;align=center;verticalAlign=middle;shape=mxgraph.arrows2.arrow;dy=0.6;dx=40;notch=0;rounded=1;sketch=1;fontFamily=Comic Sans MS;strokeColor=#9999FF;" vertex="1" parent="1">
          <mxGeometry x="266.88" y="450" width="112.12" height="26" as="geometry" />
        </mxCell>
      </root>
    </mxGraphModel>
  </diagram>
</mxfile>
